<?xml version="1.0" standalone="no"?>
<!DOCTYPE svg PUBLIC "-//W3C//DTD SVG 20010904//EN"
 "http://www.w3.org/TR/2001/REC-SVG-20010904/DTD/svg10.dtd">
<svg version="1.0" xmlns="http://www.w3.org/2000/svg"
 width="600.000000pt" height="600.000000pt" viewBox="0 0 600.000000 600.000000"
 preserveAspectRatio="xMidYMid meet">
<metadata>
Created by potrace 1.11, written by Peter Selinger 2001-2013
</metadata>
<g transform="translate(0.000000,600.000000) scale(0.100000,-0.100000)"
fill="#000000" stroke="none">
<path d="M3813 4830 c-355 -40 -672 -187 -898 -414 -156 -157 -249 -315 -300
-511 -165 -637 295 -1298 1050 -1509 167 -47 265 -59 491 -60 l211 -1 76 -72
c172 -163 385 -278 581 -312 77 -14 152 -13 195 2 65 23 61 33 -51 147 -82 83
-111 121 -140 180 -42 86 -57 143 -58 217 l0 51 83 58 c158 110 313 287 394
449 50 99 93 249 105 367 36 339 -92 669 -367 943 -237 238 -530 385 -900 451
-97 17 -373 26 -472 14z m196 -456 c6 -5 1 -142 -6 -183 l-6 -34 104 7 c143 9
358 34 453 51 44 9 81 13 84 11 5 -5 21 -136 22 -177 0 -25 -3 -26 -82 -37
-130 -17 -301 -33 -448 -40 l-135 -7 -3 -96 -3 -97 43 8 c24 5 87 12 140 16
l97 7 6 36 6 37 102 -26 c101 -27 102 -27 99 -56 -2 -27 2 -31 66 -57 136 -54
227 -140 274 -257 19 -46 23 -75 23 -170 0 -110 -1 -118 -34 -188 -59 -126
-191 -229 -368 -286 -29 -10 -59 -16 -68 -14 -8 2 -32 40 -54 85 l-39 81 45
11 c120 31 248 126 280 209 51 134 -8 276 -144 346 -18 9 -38 16 -45 16 -8 0
-26 -26 -42 -57 -47 -98 -151 -246 -230 -329 -42 -43 -76 -83 -76 -87 0 -4 11
-30 25 -57 14 -27 25 -52 25 -55 0 -5 -165 -115 -173 -115 -2 0 -16 26 -31 59
l-29 59 -51 -24 c-111 -51 -251 -68 -337 -43 -207 63 -212 392 -8 599 62 63
168 137 244 171 l45 20 0 124 0 125 -173 -6 -174 -7 -6 39 c-4 21 -7 67 -7
102 l0 62 179 0 178 0 7 38 c3 20 6 74 6 120 l0 83 108 -7 c59 -3 109 -8 111
-10z"/>
<path d="M4052 3598 c-30 -5 -56 -16 -59 -24 -6 -17 14 -224 23 -233 15 -15
155 188 171 248 5 19 1 21 -38 20 -24 -1 -68 -6 -97 -11z"/>
<path d="M3735 3484 c-64 -43 -135 -115 -161 -166 -34 -67 -34 -149 1 -183 31
-32 93 -33 167 -5 95 37 92 29 74 177 -9 70 -17 143 -18 162 -2 19 -8 36 -13
38 -6 2 -28 -9 -50 -23z"/>
<path d="M1780 4049 c-276 -35 -569 -146 -776 -291 -588 -415 -745 -1097 -373
-1628 68 -99 204 -232 306 -300 l82 -55 0 -65 c1 -134 -78 -281 -220 -414 -44
-40 -79 -78 -79 -83 0 -37 102 -57 216 -43 210 26 429 140 618 320 l81 77 90
-9 c286 -29 665 46 941 185 233 117 468 334 596 549 35 59 40 73 28 80 -152
89 -203 121 -277 177 -274 205 -458 477 -539 796 -25 99 -28 127 -29 285 0
154 3 186 24 264 19 70 21 90 11 96 -18 11 -198 48 -290 60 -89 11 -319 11
-410 -1z m250 -475 c0 -3 81 -297 181 -652 100 -356 192 -685 205 -732 13 -47
28 -100 33 -118 l10 -33 -152 3 -151 3 -33 120 c-18 66 -43 156 -56 200 l-22
80 -209 0 -209 0 -13 -40 c-7 -22 -32 -113 -55 -202 l-42 -163 -143 0 c-79 0
-144 2 -144 6 0 7 69 252 347 1232 l86 302 184 0 c100 0 183 -3 183 -6z"/>
<path d="M1827 3333 c-3 -5 -8 -26 -12 -48 -11 -62 -81 -357 -115 -483 -16
-62 -30 -119 -30 -127 0 -13 26 -15 165 -15 99 0 165 4 165 10 0 5 -31 134
-70 286 -38 152 -73 298 -76 325 -6 47 -17 68 -27 52z"/>
</g>
</svg>
